<svg xmlns="http://www.w3.org/2000/svg" width="16" height="16" viewBox="0 0 16 16">
    <g fill="#E7E9EF" fill-rule="evenodd">
        <path d="M3.2 11.2h6.4v-1.067H3.2V11.2zm0-2.667h6.4V7.467H3.2v1.066zm0-3.733v1.067h6.4V4.8H3.2z"/>
        <path fill-rule="nonzero" d="M12.736 10.073l-1.707 1.6a.2.2 0 0 1-.149.06.2.2 0 0 1-.15-.06.176.176 0 0 1-.063-.14V4.467c0-.1.085-.2.213-.2h.427c.128 0 .213.1.213.2v5.386c0 .08.107.14.192.08l.427-.4a.239.239 0 0 1 .149-.06.2.2 0 0 1 .15.06l.298.28c.043.04.064.1.064.14 0 .04-.021.08-.064.12z"/>
    </g>
</svg>
