<svg xmlns="http://www.w3.org/2000/svg" xmlns:xlink="http://www.w3.org/1999/xlink" width="30" height="30" viewBox="0 0 30 30">
    <defs>
        <path id="a" d="M15 24.5c.14 0 .27-.01.4-.04.65-.14 1.18-.58 1.44-1.18.1-.24.15-.5.15-.78h-4c.01 1.1.9 2 2.01 2zm6-11c0-3.07-1.64-5.64-4.5-6.32V6.5c0-.83-.67-1.5-1.5-1.5s-1.5.67-1.5 1.5v.68C10.63 7.86 9 10.42 9 13.5v5l-2 2v1h16v-1l-2-2v-5z"/>
    </defs>
    <g fill="none" fill-rule="evenodd">
        <mask id="b" fill="#fff">
            <use xlink:href="#a"/>
        </mask>
        <g fill="#D8D8D8" mask="url(#b)">
            <path d="M2 2h26v26H2z"/>
        </g>
    </g>
</svg>
