<svg xmlns="http://www.w3.org/2000/svg" width="17" height="20" viewBox="0 0 17 20">
    <g fill="none" fill-rule="nonzero">
        <path fill="#F3EEE9" d="M10.9 0H1.377v20h14.246V4.687l-3.345-1.171z"/>
        <path fill="#E9DFDA" d="M10.9 0H8.5v20h7.123V4.687l-3.345-1.171z"/>
        <path fill="#DAD0CB" d="M10.9 4.688h4.723L10.9 0z"/>
        <path fill="#FF4B00" d="M0 7.617h17v8.828H0z"/>
        <path fill="#DD3400" d="M8.5 7.617H17v8.828H8.5z"/>
        <path fill="#FFF3F3" d="M4.034 9.453H2.282v5.313h1.181v-1.758h.57c.988 0 1.791-.797 1.791-1.778 0-.98-.803-1.777-1.79-1.777zm0 2.383h-.571v-1.211h.57c.337 0 .61.272.61.605a.608.608 0 0 1-.61.606zM8.185 9.453h-1.18v5.313h1.18a2.355 2.355 0 0 0 2.361-2.344v-.625a2.355 2.355 0 0 0-2.36-2.344zm1.18 2.969c0 .646-.529 1.172-1.18 1.172v-2.969c.651 0 1.18.526 1.18 1.172v.625z"/>
        <g fill="#E9DFDA">
            <path d="M8.5 9.475v1.193c.499.137.866.59.866 1.129v.625c0 .538-.367.992-.866 1.129v1.193a2.353 2.353 0 0 0 2.046-2.322v-.625A2.353 2.353 0 0 0 8.5 9.475zM14.757 10.625V9.453h-2.951v5.313h1.18v-1.621h1.18v-1.172h-1.18v-1.348z"/>
        </g>
    </g>
</svg>
