<svg id="SvgjsSvg1001" width="288" height="288" xmlns="http://www.w3.org/2000/svg" version="1.1" xmlns:xlink="http://www.w3.org/1999/xlink" xmlns:svgjs="http://svgjs.com/svgjs"><defs id="SvgjsDefs1002"></defs><g id="SvgjsG1008" transform="matrix(0.9167,0,0,0.9167,12.310863224792485,12.310863224792485)"><!--?xml version="1.0" encoding="UTF-8" standalone="no"?--><svg xmlns:dc="http://purl.org/dc/elements/1.1/" xmlns:cc="http://creativecommons.org/ns#" xmlns:rdf="http://www.w3.org/1999/02/22-rdf-syntax-ns#" xmlns:svg="http://www.w3.org/2000/svg" xmlns="http://www.w3.org/2000/svg" viewBox="0 0 47.5 47.5" style="enable-background:new 0 0 47.5 47.5;" xml:space="preserve" version="1.1" id="svg2" width="288" height="288"><defs id="defs6"><clipPath id="clipPath16" clipPathUnits="userSpaceOnUse"><path id="path18" d="M 0,38 38,38 38,0 0,0 0,38 Z" fill="#000000" class="color000 svgShape"></path></clipPath></defs><g transform="matrix(1.25,0,0,-1.25,0,47.5)" id="g10" fill="#000000" class="color000 svgShape"><g id="g12" fill="#000000" class="color000 svgShape"><g clip-path="url(#clipPath16)" id="g14" fill="#000000" class="color000 svgShape"><g transform="translate(18,10)" id="g20" fill="#000000" class="color000 svgShape"><path id="path22" style="fill-opacity: 1; fill-rule: nonzero; stroke: none;" d="m 0,0 c -1.657,0 -3,1.343 -3,3 l 0,4 c 0,1.657 1.343,3 3,3 0.603,0.006 6,1 6,5 0,2 -2,4 -5,4 -2.441,0 -4,-2 -4,-3 0,-1.657 -1.343,-3 -3,-3 -1.657,0 -3,1.343 -3,3 0,4.878 4.58,9 10,9 C 9,25 12,19.018 12,14 12,9.855 9.723,6.687 5.587,5.079 4.687,4.729 3.797,4.492 3,4.332 L 3,3 C 3,1.343 1.657,0 0,0" fill="#939598" class="colorrgb147149152 svgShape"></path></g><g transform="translate(21,5)" id="g24" fill="#000000" class="color000 svgShape"><path id="path26" style="fill-opacity: 1; fill-rule: nonzero; stroke: none;" d="m 0,0 c 0,-1.657 -1.343,-3 -3,-3 -1.657,0 -3,1.343 -3,3 0,1.657 1.343,3 3,3 1.657,0 3,-1.343 3,-3" fill="#939598" class="colorrgb147149152 svgShape"></path></g></g></g></g>
	
	<metadata>
		<rdf:rdf xmlns:rdf="http://www.w3.org/1999/02/22-rdf-syntax-ns#" xmlns:rdfs="http://www.w3.org/2000/01/rdf-schema#" xmlns:dc="http://purl.org/dc/elements/1.1/">
			<rdf:description about="https://iconscout.com/legal#licenses" dc:title="Mark, Punctuation, Question, White" dc:description="Mark, Punctuation, Question, White" dc:publisher="Iconscout" dc:date="2016-12-14" dc:format="image/svg+xml" dc:language="en">
				<dc:creator>
					<rdf:bag>
						<rdf:li>Twitter Emoji</rdf:li>
					</rdf:bag>
				</dc:creator>
			</rdf:description>
		</rdf:rdf>
    </metadata></svg>
</g></svg>