<svg xmlns="http://www.w3.org/2000/svg" xmlns:xlink="http://www.w3.org/1999/xlink" width="20" height="20" viewBox="0 0 20 20">
    <defs>
        <path id="a" d="M12.333 11.333h-.526l-.187-.18a4.314 4.314 0 0 0 1.047-2.82 4.333 4.333 0 1 0-4.334 4.334c1.074 0 2.06-.394 2.82-1.047l.18.187v.526l3.334 3.327.993-.993-3.327-3.334zm-4 0c-1.66 0-3-1.34-3-3s1.34-3 3-3 3 1.34 3 3-1.34 3-3 3z"/>
    </defs>
    <g fill="none" fill-rule="evenodd">
        <mask id="b" fill="#fff">
            <use xlink:href="#a"/>
        </mask>
        <g fill="#D8D8D8" mask="url(#b)">
            <path d="M1.333 1.333h17v17h-17z"/>
        </g>
    </g>
</svg>